<?xml version="1.0" encoding="UTF-8"?>
<!DOCTYPE svg PUBLIC "-//W3C//DTD SVG 1.1//EN" "http://www.w3.org/Graphics/SVG/1.1/DTD/svg11.dtd">
<svg version="1.1" xmlns="http://www.w3.org/2000/svg" xmlns:xlink="http://www.w3.org/1999/xlink" viewBox="0 0 70 80"
       style="fill: currentColor;">
       <g>
              <path d="M62.1104 25.88L62.1104 61.4171C62.1104 67.5695 59.0929 70.6164 53.0284 70.6164L21.9151 70.6164C15.88 70.6164 12.8331 67.5695 12.8331 61.4171L12.8331 40.3257C14.0269 41.5805 15.8144 42.1303 17.5499 41.7619L17.5499 61.3586C17.5499 64.2882 19.1319 65.8996 22.1788 65.8996L52.8233 65.8996C55.8409 65.8996 57.3937 64.2882 57.3937 61.3586L57.3937 25.9386C57.3937 23.0089 55.8409 21.3976 52.794 21.3976L26.5682 21.3976C26.5108 20.2313 26.034 19.051 25.0499 18.0578L23.7096 16.6808L53.0284 16.6808C59.0929 16.6808 62.1104 19.7277 62.1104 25.88Z"
                     fill-opacity="0.85" />
              <path d="M49.7472 55.1476C49.7472 56.1437 48.9562 56.9054 47.9308 56.9054L26.3683 56.9054C25.2843 56.9054 24.5226 56.1437 24.5226 55.1476C24.5226 54.1222 25.2843 53.3019 26.3683 53.3019L47.9308 53.3019C48.9562 53.3019 49.7472 54.1222 49.7472 55.1476Z"
                     fill-opacity="0.85" />
              <path d="M49.7472 43.6046C49.7472 44.63 48.9562 45.4503 47.9308 45.4503L26.3683 45.4503C25.2843 45.4503 24.5226 44.63 24.5226 43.6046C24.5226 42.6086 25.2843 41.8468 26.3683 41.8468L47.9308 41.8468C48.9562 41.8468 49.7472 42.6086 49.7472 43.6046Z"
                     fill-opacity="0.85" />
              <path d="M49.7472 32.1496C49.7472 33.175 48.9562 33.966 47.9308 33.966L26.3683 33.966C25.2843 33.966 24.5226 33.175 24.5226 32.1496C24.5226 31.1535 25.2843 30.3625 26.3683 30.3625L47.9308 30.3625C48.9562 30.3625 49.7472 31.1535 49.7472 32.1496Z"
                     fill-opacity="0.85" />
              <path d="M3.98545 28.5461C3.95615 29.6593 5.30381 30.0402 6.03623 29.3078L10.5187 24.8253L15.5284 37.1886C15.7628 37.7453 16.3487 38.0089 16.8761 37.8039L19.8058 36.632C20.3038 36.3976 20.5382 35.7824 20.2452 35.2257L15.0011 23.0675L21.3292 22.8039C22.4132 22.7453 22.9698 21.6906 22.1788 20.841L6.15342 4.37613C5.42099 3.64371 4.27842 4.05386 4.24912 5.13785Z"
                     fill-opacity="0.85" />
       </g>
</svg>